<svg width="20" height="15" viewBox="0 0 20 15" fill="none" xmlns="http://www.w3.org/2000/svg">
<path d="M18.113 0.550695L1.73032 0.550693C1.56446 0.551213 1.40187 0.59696 1.26007 0.683009C1.11827 0.769058 1.00262 0.892149 0.925573 1.03904C0.848525 1.18592 0.812996 1.35104 0.82281 1.51662C0.832625 1.6822 0.88741 1.84196 0.98127 1.97872L9.17261 13.8107C9.5121 14.3012 10.3294 14.3012 10.6698 13.8107L18.8612 1.97872C18.956 1.84225 19.0116 1.6824 19.0219 1.51655C19.0323 1.3507 18.997 1.18518 18.9198 1.03798C18.8427 0.890785 18.7267 0.767535 18.5845 0.681625C18.4423 0.595716 18.2792 0.550433 18.113 0.550695Z" fill="white"/>
</svg>
