<svg width="37" height="37" viewBox="0 0 37 37" fill="none" xmlns="http://www.w3.org/2000/svg">
<path d="M18.4999 3.08333C9.99917 3.08333 3.08325 9.99925 3.08325 18.5C3.08325 27.0007 9.99917 33.9167 18.4999 33.9167C27.0007 33.9167 33.9166 27.0007 33.9166 18.5C33.9166 9.99925 27.0007 3.08333 18.4999 3.08333ZM18.4999 30.8333C11.6996 30.8333 6.16659 25.3003 6.16659 18.5C6.16659 11.6997 11.6996 6.16666 18.4999 6.16666C25.3002 6.16666 30.8333 11.6997 30.8333 18.5C30.8333 25.3003 25.3002 30.8333 18.4999 30.8333Z" fill="white"/>
<path d="M20.0416 10.7917H16.9583V19.1382L22.035 24.2149L24.2149 22.035L20.0416 17.8617V10.7917Z" fill="white"/>
</svg>
